<svg xmlns="http://www.w3.org/2000/svg" width="675" height="288" fill="none"><path fill="#fff" d="m135.574 103.135-31.74 46.428 62.774 4.924-31.034-51.352zm8.464-2.814 25.392 40.8-2.822-39.393-22.57-1.407zm31.74 14.773 2.821 35.876L192 141.121l-16.222-26.027zm15.517 37.283-11.286 8.441 4.232 23.214 7.054-31.655zm-50.784 65.421 32.445-47.835 6.348 32.359-38.793 15.476zm-5.448 11.472 4.231 10.668 23.887-21.931-28.118 11.263zm-8.02 3.761-28.488 14.206 32.665-3.374-4.177-10.832zm-11.96-3.859L77.435 248l-8.01-25.68 45.658 6.852zM60.1 221.739l7.052 22.933-33.573-19.709 26.521-3.224zm-31.89-51.36-3.452 46.817 31.07-3.663-27.617-43.154zm-8.231-7.84-3.012 41.762L.438 166.935l19.54-4.396zm-11.604-43.96L0 158.143l19.176-4.176-10.801-35.388zm4.704-14.214 13.003 41.909 30.34-52.167-43.343 10.258zm83.074 59.172-26.286 49.996 52.344 7.908-26.058-57.904zm70.705-.721-36.636 54.982-26.955-59.431 63.591 4.449zm-77.854-4.449-56.524 2.814 30.33 47.142 26.194-49.956zM64.845 96.949 32.48 152.276l57.115-2.713-24.75-52.614zm63.029 1.975-30.842 45.94L72.3 92.732l55.575 6.192zm.701-31.458 9.913 23.968 19.026 1.298-28.939-25.266zm38.552 18.375-.519 3.396-10.797-9.787 11.316 6.391zm-51.97-27.464L77.205 84.543l51.37 5.892-13.418-32.058zm-54.674 3.895 7.01 18.676L100.338 58l-39.856 4.272zm-7.876 3.737-29.706 27.05 36.501-8.512-6.795-18.538z"/><path stroke="#000" d="m135.574 103.135-31.74 46.428 62.774 4.924-31.034-51.352zm8.464-2.814 25.392 40.8-2.822-39.393-22.57-1.407zm31.74 14.773 2.821 35.876L192 141.121l-16.222-26.027zm15.517 37.283-11.286 8.441 4.232 23.214 7.054-31.655zm-50.784 65.421 32.445-47.835 6.348 32.359-38.793 15.476zm-5.448 11.472 4.231 10.668 23.887-21.931-28.118 11.263zm-8.02 3.761-28.488 14.206 32.665-3.374-4.177-10.832zm-11.96-3.859L77.435 248l-8.01-25.68 45.658 6.852zM60.1 221.739l7.052 22.933-33.573-19.709 26.521-3.224zm-31.89-51.36-3.452 46.817 31.07-3.663-27.617-43.154zm-8.231-7.84-3.012 41.762L.438 166.935l19.54-4.396zm-11.604-43.96L0 158.143l19.176-4.176-10.801-35.388zm4.704-14.214 13.003 41.909 30.34-52.167-43.343 10.258zm83.074 59.172-26.286 49.996 52.344 7.908-26.058-57.904zm70.705-.721-36.636 54.982-26.955-59.431 63.591 4.449zm-77.854-4.449-56.524 2.814 30.33 47.142 26.194-49.956zM64.845 96.949 32.48 152.276l57.115-2.713-24.75-52.614zm63.029 1.975-30.842 45.94L72.3 92.732l55.575 6.192zm.701-31.458 9.913 23.968 19.026 1.298-28.939-25.266zm38.552 18.375-.519 3.396-10.797-9.787 11.316 6.391zm-51.97-27.464L77.205 84.543l51.37 5.892-13.418-32.058zm-54.674 3.895 7.01 18.676L100.338 58l-39.856 4.272zm-7.876 3.737-29.706 27.05 36.501-8.512-6.795-18.538z"/><path fill="#fff" d="M359.04 228h-46.56L268.8 108h38.4l28.56 78.72L364.32 108h38.4l-43.68 120zm106.11 3.12c-11.04 0-21.12-2.84-30.24-8.52-9.04-5.68-16.28-13.32-21.72-22.92-5.36-9.6-8.04-20.2-8.04-31.8 0-8.72 1.56-16.88 4.68-24.48 3.12-7.68 7.4-14.4 12.84-20.16 5.52-5.84 11.92-10.4 19.2-13.68 7.28-3.28 15.04-4.92 23.28-4.92 9.6 0 18.36 2.12 26.28 6.36 8 4.16 14.72 9.84 20.16 17.04 5.52 7.12 9.44 15.16 11.76 24.12 2.32 8.96 2.56 18.2.72 27.72h-80.04c1.12 2.8 2.6 5.36 4.44 7.68 1.92 2.24 4.24 4.04 6.96 5.4 2.8 1.36 6.04 2.08 9.72 2.16 3.52.08 6.76-.68 9.72-2.28 3.04-1.6 5.68-3.76 7.92-6.48l36.72 8.52c-4.88 10.64-12.16 19.36-21.84 26.16-9.68 6.72-20.52 10.08-32.52 10.08zm-22.44-77.64h45c-1.12-3.44-2.8-6.48-5.04-9.12-2.24-2.64-4.88-4.72-7.92-6.24-2.96-1.52-6.16-2.28-9.6-2.28-3.36 0-6.56.76-9.6 2.28-2.96 1.52-5.56 3.6-7.8 6.24-2.16 2.64-3.84 5.68-5.04 9.12zM538.153 228V48h36v180h-36zm128.288-84h-20.4v84h-36v-84h-15.6v-36h15.6V70.32h36V108h20.4v36z"/></svg>